<?xml version="1.0" encoding="UTF-8" standalone="no"?>
<!DOCTYPE svg PUBLIC "-//W3C//DTD SVG 1.1//EN"
 "http://www.w3.org/Graphics/SVG/1.1/DTD/svg11.dtd">
<!-- Generated by graphviz version 12.2.1 (20241206.2353)
 -->
<!-- Title: Source/Link.hpp Pages: 1 -->
<svg width="458pt" height="140pt"
 viewBox="0.00 0.00 458.36 140.00" xmlns="http://www.w3.org/2000/svg" xmlns:xlink="http://www.w3.org/1999/xlink">
<g id="graph0" class="graph" transform="scale(1 1) rotate(0) translate(4 136)">
<title>Source/Link.hpp</title>
<!-- Node1 -->
<g id="Node000001" class="node">
<title>Node1</title>
<g id="a_Node000001"><a xlink:title="Header&#45;only Link family: Link, LinkHost, LinkWeakHost, LinkFromThis.">
<polygon fill="#999999" stroke="#666666" points="203.74,-132 117.24,-132 117.24,-112 203.74,-112 203.74,-132"/>
<text text-anchor="middle" x="160.49" y="-118.5" font-family="Helvetica,sans-Serif" font-size="10.00">Source/Link.hpp</text>
</a>
</g>
</g>
<!-- Node2 -->
<g id="Node000002" class="node">
<title>Node2</title>
<g id="a_Node000002"><a xlink:title=" ">
<polygon fill="#e0e0e0" stroke="#999999" points="174.11,-20 122.86,-20 122.86,0 174.11,0 174.11,-20"/>
<text text-anchor="middle" x="148.49" y="-6.5" font-family="Helvetica,sans-Serif" font-size="10.00">memory</text>
</a>
</g>
</g>
<!-- Node1&#45;&gt;Node2 -->
<g id="edge1_Node000001_Node000002" class="edge">
<title>Node1&#45;&gt;Node2</title>
<g id="a_edge1_Node000001_Node000002"><a xlink:title=" ">
<path fill="none" stroke="#63b8ff" d="M117.02,-114.21C76.31,-106.87 19.81,-93.77 6.49,-76 -22.86,-36.85 59.72,-20.6 111.01,-14.41"/>
<polygon fill="none" stroke="#63b8ff" points="111.31,-17.9 120.86,-13.31 110.53,-10.95 111.31,-17.9"/>
</a>
</g>
</g>
<!-- Node3 -->
<g id="Node000003" class="node">
<title>Node3</title>
<g id="a_Node000003"><a xlink:title=" ">
<polygon fill="#e0e0e0" stroke="#999999" points="61.11,-76 15.86,-76 15.86,-56 61.11,-56 61.11,-76"/>
<text text-anchor="middle" x="38.49" y="-62.5" font-family="Helvetica,sans-Serif" font-size="10.00">atomic</text>
</a>
</g>
</g>
<!-- Node1&#45;&gt;Node3 -->
<g id="edge2_Node000001_Node000003" class="edge">
<title>Node1&#45;&gt;Node3</title>
<g id="a_edge2_Node000001_Node000003"><a xlink:title=" ">
<path fill="none" stroke="#63b8ff" d="M139.24,-111.59C120.2,-103.17 92.01,-90.69 70.29,-81.07"/>
<polygon fill="none" stroke="#63b8ff" points="71.85,-77.94 61.29,-77.09 69.02,-84.34 71.85,-77.94"/>
</a>
</g>
</g>
<!-- Node4 -->
<g id="Node000004" class="node">
<title>Node4</title>
<g id="a_Node000004"><a xlink:title=" ">
<polygon fill="#e0e0e0" stroke="#999999" points="118.11,-76 78.86,-76 78.86,-56 118.11,-56 118.11,-76"/>
<text text-anchor="middle" x="98.49" y="-62.5" font-family="Helvetica,sans-Serif" font-size="10.00">utility</text>
</a>
</g>
</g>
<!-- Node1&#45;&gt;Node4 -->
<g id="edge3_Node000001_Node000004" class="edge">
<title>Node1&#45;&gt;Node4</title>
<g id="a_edge3_Node000001_Node000004"><a xlink:title=" ">
<path fill="none" stroke="#63b8ff" d="M149.69,-111.59C140.89,-103.93 128.24,-92.91 117.71,-83.75"/>
<polygon fill="none" stroke="#63b8ff" points="120.14,-81.22 110.31,-77.29 115.55,-86.5 120.14,-81.22"/>
</a>
</g>
</g>
<!-- Node5 -->
<g id="Node000005" class="node">
<title>Node5</title>
<g id="a_Node000005"><a xlink:title=" ">
<polygon fill="#e0e0e0" stroke="#999999" points="184.61,-76 136.36,-76 136.36,-56 184.61,-56 184.61,-76"/>
<text text-anchor="middle" x="160.49" y="-62.5" font-family="Helvetica,sans-Serif" font-size="10.00">cassert</text>
</a>
</g>
</g>
<!-- Node1&#45;&gt;Node5 -->
<g id="edge4_Node000001_Node000005" class="edge">
<title>Node1&#45;&gt;Node5</title>
<g id="a_edge4_Node000001_Node000005"><a xlink:title=" ">
<path fill="none" stroke="#63b8ff" d="M160.49,-111.59C160.49,-105.01 160.49,-95.96 160.49,-87.73"/>
<polygon fill="none" stroke="#63b8ff" points="163.99,-87.81 160.49,-77.81 156.99,-87.81 163.99,-87.81"/>
</a>
</g>
</g>
<!-- Node6 -->
<g id="Node000006" class="node">
<title>Node6</title>
<g id="a_Node000006"><a xlink:title=" ">
<polygon fill="#e0e0e0" stroke="#999999" points="250.61,-76 202.36,-76 202.36,-56 250.61,-56 250.61,-76"/>
<text text-anchor="middle" x="226.49" y="-62.5" font-family="Helvetica,sans-Serif" font-size="10.00">cstddef</text>
</a>
</g>
</g>
<!-- Node1&#45;&gt;Node6 -->
<g id="edge5_Node000001_Node000006" class="edge">
<title>Node1&#45;&gt;Node6</title>
<g id="a_edge5_Node000001_Node000006"><a xlink:title=" ">
<path fill="none" stroke="#63b8ff" d="M171.98,-111.59C181.45,-103.85 195.09,-92.69 206.36,-83.47"/>
<polygon fill="none" stroke="#63b8ff" points="208.43,-86.3 213.95,-77.26 204,-80.88 208.43,-86.3"/>
</a>
</g>
</g>
<!-- Node7 -->
<g id="Node000007" class="node">
<title>Node7</title>
<g id="a_Node000007"><a xlink:title=" ">
<polygon fill="#e0e0e0" stroke="#999999" points="327.86,-76 269.11,-76 269.11,-56 327.86,-56 327.86,-76"/>
<text text-anchor="middle" x="298.49" y="-62.5" font-family="Helvetica,sans-Serif" font-size="10.00">stdexcept</text>
</a>
</g>
</g>
<!-- Node1&#45;&gt;Node7 -->
<g id="edge6_Node000001_Node000007" class="edge">
<title>Node1&#45;&gt;Node7</title>
<g id="a_edge6_Node000001_Node000007"><a xlink:title=" ">
<path fill="none" stroke="#63b8ff" d="M184.53,-111.59C206.46,-103.01 239.12,-90.23 263.86,-80.55"/>
<polygon fill="none" stroke="#63b8ff" points="264.82,-83.93 272.85,-77.03 262.27,-77.42 264.82,-83.93"/>
</a>
</g>
</g>
<!-- Node8 -->
<g id="Node000008" class="node">
<title>Node8</title>
<g id="a_Node000008"><a xlink:href="../../d9/db9/_concepts_8hpp.html" target="_top" xlink:title="Header file for custom concepts.">
<polygon fill="white" stroke="#666666" points="422.86,-76 346.11,-76 346.11,-56 422.86,-56 422.86,-76"/>
<text text-anchor="middle" x="384.49" y="-62.5" font-family="Helvetica,sans-Serif" font-size="10.00">Concepts.hpp</text>
</a>
</g>
</g>
<!-- Node1&#45;&gt;Node8 -->
<g id="edge7_Node000001_Node000008" class="edge">
<title>Node1&#45;&gt;Node8</title>
<g id="a_edge7_Node000001_Node000008"><a xlink:title=" ">
<path fill="none" stroke="#63b8ff" d="M199.76,-111.53C237.27,-102.49 293.94,-88.83 334.61,-79.02"/>
<polygon fill="none" stroke="#63b8ff" points="335.26,-82.47 344.16,-76.72 333.62,-75.66 335.26,-82.47"/>
</a>
</g>
</g>
<!-- Node8&#45;&gt;Node2 -->
<g id="edge10_Node000008_Node000002" class="edge">
<title>Node8&#45;&gt;Node2</title>
<g id="a_edge10_Node000008_Node000002"><a xlink:title=" ">
<path fill="none" stroke="#63b8ff" d="M345.78,-56.14C301.37,-45.98 229.06,-29.44 185.41,-19.45"/>
<polygon fill="none" stroke="#63b8ff" points="186.44,-16.09 175.91,-17.27 184.88,-22.92 186.44,-16.09"/>
</a>
</g>
</g>
<!-- Node9 -->
<g id="Node000009" class="node">
<title>Node9</title>
<g id="a_Node000009"><a xlink:title=" ">
<polygon fill="#e0e0e0" stroke="#999999" points="376.36,-20 314.61,-20 314.61,0 376.36,0 376.36,-20"/>
<text text-anchor="middle" x="345.49" y="-6.5" font-family="Helvetica,sans-Serif" font-size="10.00">type_traits</text>
</a>
</g>
</g>
<!-- Node8&#45;&gt;Node9 -->
<g id="edge8_Node000008_Node000009" class="edge">
<title>Node8&#45;&gt;Node9</title>
<g id="a_edge8_Node000008_Node000009"><a xlink:title=" ">
<path fill="none" stroke="#63b8ff" d="M377.69,-55.59C372.49,-48.39 365.16,-38.23 358.8,-29.43"/>
<polygon fill="none" stroke="#63b8ff" points="361.78,-27.58 353.09,-21.53 356.11,-31.68 361.78,-27.58"/>
</a>
</g>
</g>
<!-- Node10 -->
<g id="Node000010" class="node">
<title>Node10</title>
<g id="a_Node000010"><a xlink:title=" ">
<polygon fill="#e0e0e0" stroke="#999999" points="450.36,-20 394.61,-20 394.61,0 450.36,0 450.36,-20"/>
<text text-anchor="middle" x="422.49" y="-6.5" font-family="Helvetica,sans-Serif" font-size="10.00">concepts</text>
</a>
</g>
</g>
<!-- Node8&#45;&gt;Node10 -->
<g id="edge9_Node000008_Node000010" class="edge">
<title>Node8&#45;&gt;Node10</title>
<g id="a_edge9_Node000008_Node000010"><a xlink:title=" ">
<path fill="none" stroke="#63b8ff" d="M391.11,-55.59C396.17,-48.39 403.32,-38.23 409.52,-29.43"/>
<polygon fill="none" stroke="#63b8ff" points="412.18,-31.73 415.07,-21.54 406.46,-27.7 412.18,-31.73"/>
</a>
</g>
</g>
</g>
</svg>
