<?xml version="1.0" encoding="UTF-8" standalone="no"?>
<!DOCTYPE svg PUBLIC "-//W3C//DTD SVG 1.1//EN"
 "http://www.w3.org/Graphics/SVG/1.1/DTD/svg11.dtd">
<!-- Generated by graphviz version 12.2.1 (20241206.2353)
 -->
<!-- Title: npi::LinkHost::operator= Pages: 1 -->
<svg width="433pt" height="104pt"
 viewBox="0.00 0.00 432.50 104.00" xmlns="http://www.w3.org/2000/svg" xmlns:xlink="http://www.w3.org/1999/xlink">
<g id="graph0" class="graph" transform="scale(1 1) rotate(0) translate(4 100)">
<title>npi::LinkHost::operator=</title>
<!-- Node1 -->
<g id="Node000001" class="node">
<title>Node1</title>
<g id="a_Node000001"><a xlink:title="Polymorphic assignment operator.">
<polygon fill="#999999" stroke="#666666" points="121,-58 0,-58 0,-38 121,-38 121,-58"/>
<text text-anchor="middle" x="60.5" y="-44.5" font-family="Helvetica,sans-Serif" font-size="10.00">npi::LinkHost::operator=</text>
</a>
</g>
</g>
<!-- Node2 -->
<g id="Node000002" class="node">
<title>Node2</title>
<g id="a_Node000002"><a xlink:href="../../dc/d75/classnpi_1_1_link_host.html#a59021c0af01b28c7a549c8ce16ef0368" target="_top" xlink:title="Internal helper to assign from another polymorphically related LinkHost object.">
<polygon fill="white" stroke="#666666" points="270.5,-58 157,-58 157,-38 270.5,-38 270.5,-58"/>
<text text-anchor="middle" x="213.75" y="-44.5" font-family="Helvetica,sans-Serif" font-size="10.00">npi::LinkHost::assign_</text>
</a>
</g>
</g>
<!-- Node1&#45;&gt;Node2 -->
<g id="edge1_Node000001_Node000002" class="edge">
<title>Node1&#45;&gt;Node2</title>
<g id="a_edge1_Node000001_Node000002"><a xlink:title=" ">
<path fill="none" stroke="#63b8ff" d="M121.28,-48C129.25,-48 137.46,-48 145.55,-48"/>
<polygon fill="none" stroke="#63b8ff" points="145.34,-51.5 155.34,-48 145.34,-44.5 145.34,-51.5"/>
</a>
</g>
</g>
<!-- Node3 -->
<g id="Node000003" class="node">
<title>Node3</title>
<g id="a_Node000003"><a xlink:href="../../dc/d75/classnpi_1_1_link_host.html#a6cd9c1bd41b58506f19e67a257f84043" target="_top" xlink:title="Retrieve the raw pointer to the hosted object.">
<polygon fill="white" stroke="#666666" points="414.75,-96 316.25,-96 316.25,-76 414.75,-76 414.75,-96"/>
<text text-anchor="middle" x="365.5" y="-82.5" font-family="Helvetica,sans-Serif" font-size="10.00">npi::LinkHost::get_</text>
</a>
</g>
</g>
<!-- Node2&#45;&gt;Node3 -->
<g id="edge2_Node000002_Node000003" class="edge">
<title>Node2&#45;&gt;Node3</title>
<g id="a_edge2_Node000002_Node000003"><a xlink:title=" ">
<path fill="none" stroke="#63b8ff" d="M256.07,-58.48C273.42,-62.89 293.8,-68.06 312.18,-72.72"/>
<polygon fill="none" stroke="#63b8ff" points="311.3,-76.11 321.85,-75.18 313.02,-69.33 311.3,-76.11"/>
</a>
</g>
</g>
<!-- Node4 -->
<g id="Node000004" class="node">
<title>Node4</title>
<g id="a_Node000004"><a xlink:href="../../dc/d75/classnpi_1_1_link_host.html#af25e157f0b5ab97c2b97cc0b4612f02a" target="_top" xlink:title="Check whether two LinkHost instances refer to the same object and observers (universal and local)....">
<polygon fill="white" stroke="#666666" points="424.5,-58 306.5,-58 306.5,-38 424.5,-38 424.5,-58"/>
<text text-anchor="middle" x="365.5" y="-44.5" font-family="Helvetica,sans-Serif" font-size="10.00">npi::LinkHost::isSame_</text>
</a>
</g>
</g>
<!-- Node2&#45;&gt;Node4 -->
<g id="edge3_Node000002_Node000004" class="edge">
<title>Node2&#45;&gt;Node4</title>
<g id="a_edge3_Node000002_Node000004"><a xlink:title=" ">
<path fill="none" stroke="#63b8ff" d="M270.94,-48C278.78,-48 286.91,-48 294.96,-48"/>
<polygon fill="none" stroke="#63b8ff" points="294.74,-51.5 304.73,-48 294.73,-44.5 294.74,-51.5"/>
</a>
</g>
</g>
<!-- Node5 -->
<g id="Node000005" class="node">
<title>Node5</title>
<g id="a_Node000005"><a xlink:href="../../dc/d75/classnpi_1_1_link_host.html#a8621c5f37a5de093341d6dc2f683b31a" target="_top" xlink:title="Reset the host, releasing the object and invalidating all links.">
<polygon fill="white" stroke="#666666" points="418.88,-20 312.12,-20 312.12,0 418.88,0 418.88,-20"/>
<text text-anchor="middle" x="365.5" y="-6.5" font-family="Helvetica,sans-Serif" font-size="10.00">npi::LinkHost::reset_</text>
</a>
</g>
</g>
<!-- Node2&#45;&gt;Node5 -->
<g id="edge4_Node000002_Node000005" class="edge">
<title>Node2&#45;&gt;Node5</title>
<g id="a_edge4_Node000002_Node000005"><a xlink:title=" ">
<path fill="none" stroke="#63b8ff" d="M256.07,-37.52C273.42,-33.11 293.8,-27.94 312.18,-23.28"/>
<polygon fill="none" stroke="#63b8ff" points="313.02,-26.67 321.85,-20.82 311.3,-19.89 313.02,-26.67"/>
</a>
</g>
</g>
</g>
</svg>
