<?xml version="1.0" encoding="UTF-8" standalone="no"?>
<!DOCTYPE svg PUBLIC "-//W3C//DTD SVG 1.1//EN"
 "http://www.w3.org/Graphics/SVG/1.1/DTD/svg11.dtd">
<!-- Generated by graphviz version 12.2.1 (20241206.2353)
 -->
<!-- Title: npi::LinkHost::assign_ Pages: 1 -->
<svg width="276pt" height="104pt"
 viewBox="0.00 0.00 275.50 104.00" xmlns="http://www.w3.org/2000/svg" xmlns:xlink="http://www.w3.org/1999/xlink">
<g id="graph0" class="graph" transform="scale(1 1) rotate(0) translate(4 100)">
<title>npi::LinkHost::assign_</title>
<!-- Node1 -->
<g id="Node000001" class="node">
<title>Node1</title>
<g id="a_Node000001"><a xlink:title="Internal helper to assign from another polymorphically related LinkHost object.">
<polygon fill="#999999" stroke="#666666" points="113.5,-58 0,-58 0,-38 113.5,-38 113.5,-58"/>
<text text-anchor="middle" x="56.75" y="-44.5" font-family="Helvetica,sans-Serif" font-size="10.00">npi::LinkHost::assign_</text>
</a>
</g>
</g>
<!-- Node2 -->
<g id="Node000002" class="node">
<title>Node2</title>
<g id="a_Node000002"><a xlink:href="../../dc/d75/classnpi_1_1_link_host.html#a6cd9c1bd41b58506f19e67a257f84043" target="_top" xlink:title="Retrieve the raw pointer to the hosted object.">
<polygon fill="white" stroke="#666666" points="257.75,-96 159.25,-96 159.25,-76 257.75,-76 257.75,-96"/>
<text text-anchor="middle" x="208.5" y="-82.5" font-family="Helvetica,sans-Serif" font-size="10.00">npi::LinkHost::get_</text>
</a>
</g>
</g>
<!-- Node1&#45;&gt;Node2 -->
<g id="edge1_Node000001_Node000002" class="edge">
<title>Node1&#45;&gt;Node2</title>
<g id="a_edge1_Node000001_Node000002"><a xlink:title=" ">
<path fill="none" stroke="#63b8ff" d="M99.07,-58.48C116.42,-62.89 136.8,-68.06 155.18,-72.72"/>
<polygon fill="none" stroke="#63b8ff" points="154.3,-76.11 164.85,-75.18 156.02,-69.33 154.3,-76.11"/>
</a>
</g>
</g>
<!-- Node3 -->
<g id="Node000003" class="node">
<title>Node3</title>
<g id="a_Node000003"><a xlink:href="../../dc/d75/classnpi_1_1_link_host.html#af25e157f0b5ab97c2b97cc0b4612f02a" target="_top" xlink:title="Check whether two LinkHost instances refer to the same object and observers (universal and local)....">
<polygon fill="white" stroke="#666666" points="267.5,-58 149.5,-58 149.5,-38 267.5,-38 267.5,-58"/>
<text text-anchor="middle" x="208.5" y="-44.5" font-family="Helvetica,sans-Serif" font-size="10.00">npi::LinkHost::isSame_</text>
</a>
</g>
</g>
<!-- Node1&#45;&gt;Node3 -->
<g id="edge2_Node000001_Node000003" class="edge">
<title>Node1&#45;&gt;Node3</title>
<g id="a_edge2_Node000001_Node000003"><a xlink:title=" ">
<path fill="none" stroke="#63b8ff" d="M113.94,-48C121.78,-48 129.91,-48 137.96,-48"/>
<polygon fill="none" stroke="#63b8ff" points="137.74,-51.5 147.73,-48 137.73,-44.5 137.74,-51.5"/>
</a>
</g>
</g>
<!-- Node4 -->
<g id="Node000004" class="node">
<title>Node4</title>
<g id="a_Node000004"><a xlink:href="../../dc/d75/classnpi_1_1_link_host.html#a8621c5f37a5de093341d6dc2f683b31a" target="_top" xlink:title="Reset the host, releasing the object and invalidating all links.">
<polygon fill="white" stroke="#666666" points="261.88,-20 155.12,-20 155.12,0 261.88,0 261.88,-20"/>
<text text-anchor="middle" x="208.5" y="-6.5" font-family="Helvetica,sans-Serif" font-size="10.00">npi::LinkHost::reset_</text>
</a>
</g>
</g>
<!-- Node1&#45;&gt;Node4 -->
<g id="edge3_Node000001_Node000004" class="edge">
<title>Node1&#45;&gt;Node4</title>
<g id="a_edge3_Node000001_Node000004"><a xlink:title=" ">
<path fill="none" stroke="#63b8ff" d="M99.07,-37.52C116.42,-33.11 136.8,-27.94 155.18,-23.28"/>
<polygon fill="none" stroke="#63b8ff" points="156.02,-26.67 164.85,-20.82 154.3,-19.89 156.02,-26.67"/>
</a>
</g>
</g>
</g>
</svg>
