<?xml version="1.0" encoding="UTF-8" standalone="no"?>
<!DOCTYPE svg PUBLIC "-//W3C//DTD SVG 1.1//EN"
 "http://www.w3.org/Graphics/SVG/1.1/DTD/svg11.dtd">
<!-- Generated by graphviz version 12.2.1 (20241206.2353)
 -->
<!-- Title: npi::LinkHost::isSame_ Pages: 1 -->
<svg width="433pt" height="66pt"
 viewBox="0.00 0.00 432.50 66.00" xmlns="http://www.w3.org/2000/svg" xmlns:xlink="http://www.w3.org/1999/xlink">
<g id="graph0" class="graph" transform="scale(1 1) rotate(0) translate(4 62)">
<title>npi::LinkHost::isSame_</title>
<!-- Node1 -->
<g id="Node000001" class="node">
<title>Node1</title>
<g id="a_Node000001"><a xlink:title="Check whether two LinkHost instances refer to the same object and observers (universal and local)....">
<polygon fill="#999999" stroke="#666666" points="424.5,-39 306.5,-39 306.5,-19 424.5,-19 424.5,-39"/>
<text text-anchor="middle" x="365.5" y="-25.5" font-family="Helvetica,sans-Serif" font-size="10.00">npi::LinkHost::isSame_</text>
</a>
</g>
</g>
<!-- Node2 -->
<g id="Node000002" class="node">
<title>Node2</title>
<g id="a_Node000002"><a xlink:href="../../dc/d75/classnpi_1_1_link_host.html#a59021c0af01b28c7a549c8ce16ef0368" target="_top" xlink:title="Internal helper to assign from another polymorphically related LinkHost object.">
<polygon fill="white" stroke="#666666" points="270.5,-39 157,-39 157,-19 270.5,-19 270.5,-39"/>
<text text-anchor="middle" x="213.75" y="-25.5" font-family="Helvetica,sans-Serif" font-size="10.00">npi::LinkHost::assign_</text>
</a>
</g>
</g>
<!-- Node1&#45;&gt;Node2 -->
<g id="edge1_Node000001_Node000002" class="edge">
<title>Node1&#45;&gt;Node2</title>
<g id="a_edge1_Node000001_Node000002"><a xlink:title=" ">
<path fill="none" stroke="#63b8ff" d="M294.83,-29C286.75,-29 278.58,-29 270.71,-29"/>
<polygon fill="none" stroke="#63b8ff" points="294.66,-32.5 304.66,-29 294.66,-25.5 294.66,-32.5"/>
</a>
</g>
</g>
<!-- Node3 -->
<g id="Node000003" class="node">
<title>Node3</title>
<g id="a_Node000003"><a xlink:href="../../dc/d75/classnpi_1_1_link_host.html#a490ac825e921d673a3a32c94e7058d1d" target="_top" xlink:title="Polymorphic converting copy constructor.">
<polygon fill="white" stroke="#666666" points="119.88,-58 1.12,-58 1.12,-38 119.88,-38 119.88,-58"/>
<text text-anchor="middle" x="60.5" y="-44.5" font-family="Helvetica,sans-Serif" font-size="10.00">npi::LinkHost::LinkHost</text>
</a>
</g>
</g>
<!-- Node2&#45;&gt;Node3 -->
<g id="edge2_Node000002_Node000003" class="edge">
<title>Node2&#45;&gt;Node3</title>
<g id="a_edge2_Node000002_Node000003"><a xlink:title=" ">
<path fill="none" stroke="#63b8ff" d="M145.49,-37.45C137.06,-38.51 128.49,-39.59 120.2,-40.63"/>
<polygon fill="none" stroke="#63b8ff" points="145.87,-40.93 155.36,-36.21 145,-33.98 145.87,-40.93"/>
</a>
</g>
</g>
<!-- Node4 -->
<g id="Node000004" class="node">
<title>Node4</title>
<g id="a_Node000004"><a xlink:href="../../dc/d75/classnpi_1_1_link_host.html#aa7c182e77bd354c70fb694ac3b1a6d76" target="_top" xlink:title="Polymorphic assignment operator.">
<polygon fill="white" stroke="#666666" points="121,-20 0,-20 0,0 121,0 121,-20"/>
<text text-anchor="middle" x="60.5" y="-6.5" font-family="Helvetica,sans-Serif" font-size="10.00">npi::LinkHost::operator=</text>
</a>
</g>
</g>
<!-- Node2&#45;&gt;Node4 -->
<g id="edge3_Node000002_Node000004" class="edge">
<title>Node2&#45;&gt;Node4</title>
<g id="a_edge3_Node000002_Node000004"><a xlink:title=" ">
<path fill="none" stroke="#63b8ff" d="M145.62,-20.57C137.58,-19.56 129.41,-18.53 121.48,-17.53"/>
<polygon fill="none" stroke="#63b8ff" points="145,-24.02 155.36,-21.79 145.87,-17.07 145,-24.02"/>
</a>
</g>
</g>
</g>
</svg>
