<?xml version="1.0" encoding="UTF-8" standalone="no"?>
<!DOCTYPE svg PUBLIC "-//W3C//DTD SVG 1.1//EN"
 "http://www.w3.org/Graphics/SVG/1.1/DTD/svg11.dtd">
<!-- Generated by graphviz version 12.2.1 (20241206.2353)
 -->
<!-- Title: npi::LinkHost::get_ Pages: 1 -->
<svg width="442pt" height="370pt"
 viewBox="0.00 0.00 441.50 370.00" xmlns="http://www.w3.org/2000/svg" xmlns:xlink="http://www.w3.org/1999/xlink">

<svg id="main" version="1.1" xmlns="http://www.w3.org/2000/svg" xmlns:xlink="http://www.w3.org/1999/xlink" xml:space="preserve">

<style type="text/css"><![CDATA[
.node, .edge {opacity: 0.7;}
.node.selected, .edge.selected {opacity: 1;}
.edge:hover path { stroke: red; }
.edge:hover polygon { stroke: red; fill: red; }
]]></style>
<script type="application/ecmascript" xlink:href="../../svg.min.js" target="_top"/>
<svg id="graph" class="graph">
<g id="graph0" class="graph" transform="scale(1 1) rotate(0) translate(4 366)">
<title>npi::LinkHost::get_</title>
<!-- Node1 -->
<g id="Node000001" class="node">
<title>Node1</title>
<g id="a_Node000001"><a xlink:title="Retrieve the raw pointer to the hosted object.">
<polygon fill="#999999" stroke="#666666" points="433.5,-172 335,-172 335,-152 433.5,-152 433.5,-172"/>
<text text-anchor="middle" x="384.25" y="-158.5" font-family="Helvetica,sans-Serif" font-size="10.00">npi::LinkHost::get_</text>
</a>
</g>
</g>
<!-- Node2 -->
<g id="Node000002" class="node">
<title>Node2</title>
<g id="a_Node000002"><a xlink:href="../../dc/d75/classnpi_1_1_link_host.html#a59021c0af01b28c7a549c8ce16ef0368" target="_top" xlink:title="Internal helper to assign from another polymorphically related LinkHost object.">
<polygon fill="white" stroke="#666666" points="292.25,-324 178.75,-324 178.75,-304 292.25,-304 292.25,-324"/>
<text text-anchor="middle" x="235.5" y="-310.5" font-family="Helvetica,sans-Serif" font-size="10.00">npi::LinkHost::assign_</text>
</a>
</g>
</g>
<!-- Node1&#45;&gt;Node2 -->
<g id="edge1_Node000001_Node000002" class="edge">
<title>Node1&#45;&gt;Node2</title>
<g id="a_edge1_Node000001_Node000002"><a xlink:title=" ">
<path fill="none" stroke="#63b8ff" d="M375.42,-183.1C363.44,-212.49 337.8,-265.46 299,-295 294.49,-298.43 289.35,-301.25 284.01,-303.56"/>
<polygon fill="none" stroke="#63b8ff" points="378.66,-184.42 379.04,-173.83 372.14,-181.87 378.66,-184.42"/>
</a>
</g>
</g>
<!-- Node5 -->
<g id="Node000005" class="node">
<title>Node5</title>
<g id="a_Node000005"><a xlink:href="../../dc/d75/classnpi_1_1_link_host.html#a61f11562475a5e48d58ddc0e85a956b7" target="_top" xlink:title="Check whether the host owns an object.">
<polygon fill="white" stroke="#666666" points="292.25,-286 178.75,-286 178.75,-266 292.25,-266 292.25,-286"/>
<text text-anchor="middle" x="235.5" y="-272.5" font-family="Helvetica,sans-Serif" font-size="10.00">npi::LinkHost::isValid_</text>
</a>
</g>
</g>
<!-- Node1&#45;&gt;Node5 -->
<g id="edge4_Node000001_Node000005" class="edge">
<title>Node1&#45;&gt;Node5</title>
<g id="a_edge4_Node000001_Node000005"><a xlink:title=" ">
<path fill="none" stroke="#63b8ff" d="M370.72,-181.7C356.04,-203.22 329.78,-237.26 299,-257 293.65,-260.43 287.66,-263.27 281.55,-265.61"/>
<polygon fill="none" stroke="#63b8ff" points="373.53,-183.79 376.13,-173.52 367.69,-179.93 373.53,-183.79"/>
</a>
</g>
</g>
<!-- Node7 -->
<g id="Node000007" class="node">
<title>Node7</title>
<g id="a_Node000007"><a xlink:href="../../dc/d75/classnpi_1_1_link_host.html#a6fc6cc45006e9e852b019166c75ce24b" target="_top" xlink:title="Inequality comparison with a null pointer.">
<polygon fill="white" stroke="#666666" points="297.5,-248 173.5,-248 173.5,-228 297.5,-228 297.5,-248"/>
<text text-anchor="middle" x="235.5" y="-234.5" font-family="Helvetica,sans-Serif" font-size="10.00">npi::LinkHost::operator!=</text>
</a>
</g>
</g>
<!-- Node1&#45;&gt;Node7 -->
<g id="edge6_Node000001_Node000007" class="edge">
<title>Node1&#45;&gt;Node7</title>
<g id="a_edge6_Node000001_Node000007"><a xlink:title=" ">
<path fill="none" stroke="#63b8ff" d="M361.8,-179.17C345.39,-191.63 321.79,-208.13 299,-219 292.14,-222.27 284.59,-225.13 277.18,-227.57"/>
<polygon fill="none" stroke="#63b8ff" points="363.61,-182.2 369.37,-173.31 359.32,-176.67 363.61,-182.2"/>
</a>
</g>
</g>
<!-- Node8 -->
<g id="Node000008" class="node">
<title>Node8</title>
<g id="a_Node000008"><a xlink:href="../../dc/d75/classnpi_1_1_link_host.html#aa556b0640e3ba8d6a555fb8b2a615e8b" target="_top" xlink:title="Dereference operator to obtain a reference to the hosted object.">
<polygon fill="white" stroke="#666666" points="294.88,-210 176.12,-210 176.12,-190 294.88,-190 294.88,-210"/>
<text text-anchor="middle" x="235.5" y="-196.5" font-family="Helvetica,sans-Serif" font-size="10.00">npi::LinkHost::operator*</text>
</a>
</g>
</g>
<!-- Node1&#45;&gt;Node8 -->
<g id="edge7_Node000001_Node000008" class="edge">
<title>Node1&#45;&gt;Node8</title>
<g id="a_edge7_Node000001_Node000008"><a xlink:title=" ">
<path fill="none" stroke="#63b8ff" d="M331.84,-175.31C313.81,-179.98 293.84,-185.15 276.86,-189.55"/>
<polygon fill="none" stroke="#63b8ff" points="332.49,-178.76 341.3,-172.86 330.74,-171.98 332.49,-178.76"/>
</a>
</g>
</g>
<!-- Node9 -->
<g id="Node000009" class="node">
<title>Node9</title>
<g id="a_Node000009"><a xlink:href="../../dc/d75/classnpi_1_1_link_host.html#a1b291b8559bbd1e5a2d53076334aa932" target="_top" xlink:title="Pointer&#45;like access operator.">
<polygon fill="white" stroke="#666666" points="297.5,-172 173.5,-172 173.5,-152 297.5,-152 297.5,-172"/>
<text text-anchor="middle" x="235.5" y="-158.5" font-family="Helvetica,sans-Serif" font-size="10.00">npi::LinkHost::operator&#45;&gt;</text>
</a>
</g>
</g>
<!-- Node1&#45;&gt;Node9 -->
<g id="edge8_Node000001_Node000009" class="edge">
<title>Node1&#45;&gt;Node9</title>
<g id="a_edge8_Node000001_Node000009"><a xlink:title=" ">
<path fill="none" stroke="#63b8ff" d="M323.52,-162C315.1,-162 306.44,-162 297.99,-162"/>
<polygon fill="none" stroke="#63b8ff" points="323.28,-165.5 333.28,-162 323.28,-158.5 323.28,-165.5"/>
</a>
</g>
</g>
<!-- Node10 -->
<g id="Node000010" class="node">
<title>Node10</title>
<g id="a_Node000010"><a xlink:href="../../dc/d75/classnpi_1_1_link_host.html#a81ef04ad98a7dfdfcd17fd52fd3f43a1" target="_top" xlink:title="Compare this LinkHost object to a Link object for equality.">
<polygon fill="white" stroke="#666666" points="299,-134 172,-134 172,-114 299,-114 299,-134"/>
<text text-anchor="middle" x="235.5" y="-120.5" font-family="Helvetica,sans-Serif" font-size="10.00">npi::LinkHost::operator==</text>
</a>
</g>
</g>
<!-- Node1&#45;&gt;Node10 -->
<g id="edge9_Node000001_Node000010" class="edge">
<title>Node1&#45;&gt;Node10</title>
<g id="a_edge9_Node000001_Node000010"><a xlink:title=" ">
<path fill="none" stroke="#63b8ff" d="M331.84,-148.69C313.81,-144.02 293.84,-138.85 276.86,-134.45"/>
<polygon fill="none" stroke="#63b8ff" points="330.74,-152.02 341.3,-151.14 332.49,-145.24 330.74,-152.02"/>
</a>
</g>
</g>
<!-- Node11 -->
<g id="Node000011" class="node">
<title>Node11</title>
<g id="a_Node000011"><a xlink:href="../../dc/d75/classnpi_1_1_link_host.html#aa86540af33b8e041066e4249d6f16005" target="_top" xlink:title="Compare this LinkHost object to another LinkHost object for equality.">
<polygon fill="white" stroke="#666666" points="299,-96 172,-96 172,-76 299,-76 299,-96"/>
<text text-anchor="middle" x="235.5" y="-82.5" font-family="Helvetica,sans-Serif" font-size="10.00">npi::LinkHost::operator==</text>
</a>
</g>
</g>
<!-- Node1&#45;&gt;Node11 -->
<g id="edge10_Node000001_Node000011" class="edge">
<title>Node1&#45;&gt;Node11</title>
<g id="a_edge10_Node000001_Node000011"><a xlink:title=" ">
<path fill="none" stroke="#63b8ff" d="M361.8,-144.83C345.39,-132.37 321.79,-115.87 299,-105 292.14,-101.73 284.59,-98.87 277.18,-96.43"/>
<polygon fill="none" stroke="#63b8ff" points="359.32,-147.33 369.37,-150.69 363.61,-141.8 359.32,-147.33"/>
</a>
</g>
</g>
<!-- Node12 -->
<g id="Node000012" class="node">
<title>Node12</title>
<g id="a_Node000012"><a xlink:href="../../dc/d75/classnpi_1_1_link_host.html#af2ecaae32080f9da0eee819f217823c0" target="_top" xlink:title="Compare to raw pointer for equality.">
<polygon fill="white" stroke="#666666" points="299,-58 172,-58 172,-38 299,-38 299,-58"/>
<text text-anchor="middle" x="235.5" y="-44.5" font-family="Helvetica,sans-Serif" font-size="10.00">npi::LinkHost::operator==</text>
</a>
</g>
</g>
<!-- Node1&#45;&gt;Node12 -->
<g id="edge11_Node000001_Node000012" class="edge">
<title>Node1&#45;&gt;Node12</title>
<g id="a_edge11_Node000001_Node000012"><a xlink:title=" ">
<path fill="none" stroke="#63b8ff" d="M370.72,-142.3C356.04,-120.78 329.78,-86.74 299,-67 293.65,-63.57 287.66,-60.73 281.55,-58.39"/>
<polygon fill="none" stroke="#63b8ff" points="367.69,-144.07 376.13,-150.48 373.53,-140.21 367.69,-144.07"/>
</a>
</g>
</g>
<!-- Node13 -->
<g id="Node000013" class="node">
<title>Node13</title>
<g id="a_Node000013"><a xlink:href="../../dc/d75/classnpi_1_1_link_host.html#a833c71cd7b0e106af7d070461b98e479" target="_top" xlink:title="Compare the stored pointer to a null pointer.">
<polygon fill="white" stroke="#666666" points="299,-20 172,-20 172,0 299,0 299,-20"/>
<text text-anchor="middle" x="235.5" y="-6.5" font-family="Helvetica,sans-Serif" font-size="10.00">npi::LinkHost::operator==</text>
</a>
</g>
</g>
<!-- Node1&#45;&gt;Node13 -->
<g id="edge12_Node000001_Node000013" class="edge">
<title>Node1&#45;&gt;Node13</title>
<g id="a_edge12_Node000001_Node000013"><a xlink:title=" ">
<path fill="none" stroke="#63b8ff" d="M375.42,-140.9C363.44,-111.51 337.8,-58.54 299,-29 294.49,-25.57 289.35,-22.75 284.01,-20.44"/>
<polygon fill="none" stroke="#63b8ff" points="372.14,-142.13 379.04,-150.17 378.66,-139.58 372.14,-142.13"/>
</a>
</g>
</g>
<!-- Node3 -->
<g id="Node000003" class="node">
<title>Node3</title>
<g id="a_Node000003"><a xlink:href="../../dc/d75/classnpi_1_1_link_host.html#a490ac825e921d673a3a32c94e7058d1d" target="_top" xlink:title="Polymorphic converting copy constructor.">
<polygon fill="white" stroke="#666666" points="127.38,-362 8.62,-362 8.62,-342 127.38,-342 127.38,-362"/>
<text text-anchor="middle" x="68" y="-348.5" font-family="Helvetica,sans-Serif" font-size="10.00">npi::LinkHost::LinkHost</text>
</a>
</g>
</g>
<!-- Node2&#45;&gt;Node3 -->
<g id="edge2_Node000002_Node000003" class="edge">
<title>Node2&#45;&gt;Node3</title>
<g id="a_edge2_Node000002_Node000003"><a xlink:title=" ">
<path fill="none" stroke="#63b8ff" d="M177.66,-327.05C157.04,-331.78 134.03,-337.07 114.51,-341.55"/>
<polygon fill="none" stroke="#63b8ff" points="178.4,-330.47 187.36,-324.82 176.83,-323.65 178.4,-330.47"/>
</a>
</g>
</g>
<!-- Node4 -->
<g id="Node000004" class="node">
<title>Node4</title>
<g id="a_Node000004"><a xlink:href="../../dc/d75/classnpi_1_1_link_host.html#aa7c182e77bd354c70fb694ac3b1a6d76" target="_top" xlink:title="Polymorphic assignment operator.">
<polygon fill="white" stroke="#666666" points="128.5,-324 7.5,-324 7.5,-304 128.5,-304 128.5,-324"/>
<text text-anchor="middle" x="68" y="-310.5" font-family="Helvetica,sans-Serif" font-size="10.00">npi::LinkHost::operator=</text>
</a>
</g>
</g>
<!-- Node2&#45;&gt;Node4 -->
<g id="edge3_Node000002_Node000004" class="edge">
<title>Node2&#45;&gt;Node4</title>
<g id="a_edge3_Node000002_Node000004"><a xlink:title=" ">
<path fill="none" stroke="#63b8ff" d="M167.05,-314C154.43,-314 141.32,-314 128.94,-314"/>
<polygon fill="none" stroke="#63b8ff" points="166.96,-317.5 176.96,-314 166.96,-310.5 166.96,-317.5"/>
</a>
</g>
</g>
<!-- Node6 -->
<g id="Node000006" class="node">
<title>Node6</title>
<g id="a_Node000006"><a xlink:href="../../dc/d75/classnpi_1_1_link_host.html#a3808e1b2809ec5532d9cb4e8d50741dd" target="_top" xlink:title="Explicit boolean conversion operator (e.g. if(linkHost){...}).">
<polygon fill="white" stroke="#666666" points="136,-286 0,-286 0,-266 136,-266 136,-286"/>
<text text-anchor="middle" x="68" y="-272.5" font-family="Helvetica,sans-Serif" font-size="10.00">npi::LinkHost::operator bool</text>
</a>
</g>
</g>
<!-- Node5&#45;&gt;Node6 -->
<g id="edge5_Node000005_Node000006" class="edge">
<title>Node5&#45;&gt;Node6</title>
<g id="a_edge5_Node000005_Node000006"><a xlink:title=" ">
<path fill="none" stroke="#63b8ff" d="M167.19,-276C157.04,-276 146.58,-276 136.43,-276"/>
<polygon fill="none" stroke="#63b8ff" points="166.96,-279.5 176.96,-276 166.96,-272.5 166.96,-279.5"/>
</a>
</g>
</g>
</g>
</svg>
</svg>

<style type='text/css'>
<![CDATA[
[data-mouse-over-selected='false'] { opacity: 0.7; }
[data-mouse-over-selected='true']  { opacity: 1.0; }
]]>
</style>
<script type="application/ecmascript"><![CDATA[
document.addEventListener('DOMContentLoaded', (event) => {
  highlightEdges();
  highlightAdjacentNodes();
});
]]></script>
</svg>
</svg>
