<?xml version="1.0" encoding="UTF-8" standalone="no"?>
<!DOCTYPE svg PUBLIC "-//W3C//DTD SVG 1.1//EN"
 "http://www.w3.org/Graphics/SVG/1.1/DTD/svg11.dtd">
<!-- Generated by graphviz version 12.2.1 (20241206.2353)
 -->
<!-- Title: npi::LinkHost&lt; T &gt; Pages: 1 -->
<svg width="97pt" height="284pt"
 viewBox="0.00 0.00 97.00 284.00" xmlns="http://www.w3.org/2000/svg" xmlns:xlink="http://www.w3.org/1999/xlink">
<g id="graph0" class="graph" transform="scale(1 1) rotate(0) translate(4 280)">
<title>npi::LinkHost&lt; T &gt;</title>
<!-- Node1 -->
<g id="Node000001" class="node">
<title>Node1</title>
<g id="a_Node000001"><a xlink:title="A thread&#45;safe, owning host that manages an object of type T and notifies linked pointers upon destruc...">
<polygon fill="#999999" stroke="none" points="89,-276 0,-276 0,0 89,0 89,-276"/>
<text text-anchor="start" x="4" y="-262.5" font-family="Helvetica,sans-Serif" font-size="10.00">npi::LinkHost&lt; T &gt;</text>
<text text-anchor="start" x="7.5" y="-246.5" font-family="Helvetica,sans-Serif" font-size="10.00">&#45;</text>
<text text-anchor="start" x="18" y="-246.5" font-family="Helvetica,sans-Serif" font-size="10.00">obj_</text>
<text text-anchor="start" x="7.5" y="-230.5" font-family="Helvetica,sans-Serif" font-size="10.00">&#45;</text>
<text text-anchor="start" x="18" y="-230.5" font-family="Helvetica,sans-Serif" font-size="10.00">uni_</text>
<text text-anchor="start" x="7.5" y="-214.5" font-family="Helvetica,sans-Serif" font-size="10.00">&#45;</text>
<text text-anchor="start" x="18" y="-214.5" font-family="Helvetica,sans-Serif" font-size="10.00">loc_</text>
<text text-anchor="start" x="6" y="-198.5" font-family="Helvetica,sans-Serif" font-size="10.00">+</text>
<text text-anchor="start" x="18" y="-198.5" font-family="Helvetica,sans-Serif" font-size="10.00">LinkHost()</text>
<text text-anchor="start" x="6" y="-182.5" font-family="Helvetica,sans-Serif" font-size="10.00">+</text>
<text text-anchor="start" x="18" y="-182.5" font-family="Helvetica,sans-Serif" font-size="10.00">LinkHost()</text>
<text text-anchor="start" x="6" y="-166.5" font-family="Helvetica,sans-Serif" font-size="10.00">+</text>
<text text-anchor="start" x="18" y="-166.5" font-family="Helvetica,sans-Serif" font-size="10.00">LinkHost()</text>
<text text-anchor="start" x="6" y="-150.5" font-family="Helvetica,sans-Serif" font-size="10.00">+</text>
<text text-anchor="start" x="18" y="-150.5" font-family="Helvetica,sans-Serif" font-size="10.00">operator=()</text>
<text text-anchor="start" x="6" y="-134.5" font-family="Helvetica,sans-Serif" font-size="10.00">+</text>
<text text-anchor="start" x="18" y="-134.5" font-family="Helvetica,sans-Serif" font-size="10.00">operator=()</text>
<text text-anchor="start" x="6" y="-118.5" font-family="Helvetica,sans-Serif" font-size="10.00">+</text>
<text text-anchor="start" x="18" y="-118.5" font-family="Helvetica,sans-Serif" font-size="10.00">~LinkHost()</text>
<text text-anchor="start" x="6" y="-102.5" font-family="Helvetica,sans-Serif" font-size="10.00">+</text>
<text text-anchor="start" x="18" y="-102.5" font-family="Helvetica,sans-Serif" font-size="10.00">LinkHost()</text>
<text text-anchor="start" x="6" y="-86.5" font-family="Helvetica,sans-Serif" font-size="10.00">+</text>
<text text-anchor="start" x="18" y="-86.5" font-family="Helvetica,sans-Serif" font-size="10.00">LinkHost()</text>
<text text-anchor="start" x="6" y="-70.5" font-family="Helvetica,sans-Serif" font-size="10.00">+</text>
<text text-anchor="start" x="18" y="-70.5" font-family="Helvetica,sans-Serif" font-size="10.00">operator=()</text>
<text text-anchor="start" x="6" y="-54.5" font-family="Helvetica,sans-Serif" font-size="10.00">+</text>
<text text-anchor="start" x="18" y="-54.5" font-family="Helvetica,sans-Serif" font-size="10.00">isSame_()</text>
<text text-anchor="start" x="18" y="-38.5" font-family="Helvetica,sans-Serif" font-size="10.00">and 20 more...</text>
<text text-anchor="start" x="7.5" y="-22.5" font-family="Helvetica,sans-Serif" font-size="10.00">&#45;</text>
<text text-anchor="start" x="18" y="-22.5" font-family="Helvetica,sans-Serif" font-size="10.00">LinkHost()</text>
<text text-anchor="start" x="7.5" y="-6.5" font-family="Helvetica,sans-Serif" font-size="10.00">&#45;</text>
<text text-anchor="start" x="18" y="-6.5" font-family="Helvetica,sans-Serif" font-size="10.00">assign_()</text>
<polygon fill="#666666" stroke="#666666" points="0,-258 0,-258 89,-258 89,-258 0,-258"/>
<polygon fill="#666666" stroke="#666666" points="0,-210 0,-210 16,-210 16,-210 0,-210"/>
<polygon fill="#666666" stroke="#666666" points="16,-210 16,-210 89,-210 89,-210 16,-210"/>
<polygon fill="none" stroke="#666666" points="0,0 0,-276 89,-276 89,0 0,0"/>
</a>
</g>
</g>
</g>
</svg>
