<?xml version="1.0" encoding="UTF-8" standalone="no"?>
<!DOCTYPE svg PUBLIC "-//W3C//DTD SVG 1.1//EN"
 "http://www.w3.org/Graphics/SVG/1.1/DTD/svg11.dtd">
<!-- Generated by graphviz version 12.2.1 (20241206.2353)
 -->
<!-- Title: npi::Link::operator= Pages: 1 -->
<svg width="350pt" height="28pt"
 viewBox="0.00 0.00 350.00 28.00" xmlns="http://www.w3.org/2000/svg" xmlns:xlink="http://www.w3.org/1999/xlink">
<g id="graph0" class="graph" transform="scale(1 1) rotate(0) translate(4 24)">
<title>npi::Link::operator=</title>
<!-- Node1 -->
<g id="Node000001" class="node">
<title>Node1</title>
<g id="a_Node000001"><a xlink:title="Polymorphic assignment operator.">
<polygon fill="#999999" stroke="#666666" points="100,-20 0,-20 0,0 100,0 100,-20"/>
<text text-anchor="middle" x="50" y="-6.5" font-family="Helvetica,sans-Serif" font-size="10.00">npi::Link::operator=</text>
</a>
</g>
</g>
<!-- Node2 -->
<g id="Node000002" class="node">
<title>Node2</title>
<g id="a_Node000002"><a xlink:href="../../df/d94/classnpi_1_1_link.html#a49ef453c2ae07faa7affc879993e4427" target="_top" xlink:title="Internal helper to assign from another polymorphically related Link object.">
<polygon fill="white" stroke="#666666" points="228.5,-20 136,-20 136,0 228.5,0 228.5,-20"/>
<text text-anchor="middle" x="182.25" y="-6.5" font-family="Helvetica,sans-Serif" font-size="10.00">npi::Link::assign_</text>
</a>
</g>
</g>
<!-- Node1&#45;&gt;Node2 -->
<g id="edge1_Node000001_Node000002" class="edge">
<title>Node1&#45;&gt;Node2</title>
<g id="a_edge1_Node000001_Node000002"><a xlink:title=" ">
<path fill="none" stroke="#63b8ff" d="M100.24,-10C108.17,-10 116.44,-10 124.53,-10"/>
<polygon fill="none" stroke="#63b8ff" points="124.29,-13.5 134.29,-10 124.29,-6.5 124.29,-13.5"/>
</a>
</g>
</g>
<!-- Node3 -->
<g id="Node000003" class="node">
<title>Node3</title>
<g id="a_Node000003"><a xlink:href="../../df/d94/classnpi_1_1_link.html#ae203b61846ab71e431c98c3aaaf3a3a5" target="_top" xlink:title="Retrieve a raw pointer to the managed object, if any.">
<polygon fill="white" stroke="#666666" points="342,-20 264.5,-20 264.5,0 342,0 342,-20"/>
<text text-anchor="middle" x="303.25" y="-6.5" font-family="Helvetica,sans-Serif" font-size="10.00">npi::Link::get_</text>
</a>
</g>
</g>
<!-- Node2&#45;&gt;Node3 -->
<g id="edge2_Node000002_Node000003" class="edge">
<title>Node2&#45;&gt;Node3</title>
<g id="a_edge2_Node000002_Node000003"><a xlink:title=" ">
<path fill="none" stroke="#63b8ff" d="M228.92,-10C236.76,-10 244.93,-10 252.87,-10"/>
<polygon fill="none" stroke="#63b8ff" points="252.73,-13.5 262.73,-10 252.73,-6.5 252.73,-13.5"/>
</a>
</g>
</g>
</g>
</svg>
