<?xml version="1.0" encoding="UTF-8" standalone="no"?>
<!DOCTYPE svg PUBLIC "-//W3C//DTD SVG 1.1//EN"
 "http://www.w3.org/Graphics/SVG/1.1/DTD/svg11.dtd">
<!-- Generated by graphviz version 12.2.1 (20241206.2353)
 -->
<!-- Title: npi::Link::assign_ Pages: 1 -->
<svg width="237pt" height="66pt"
 viewBox="0.00 0.00 236.50 66.00" xmlns="http://www.w3.org/2000/svg" xmlns:xlink="http://www.w3.org/1999/xlink">
<g id="graph0" class="graph" transform="scale(1 1) rotate(0) translate(4 62)">
<title>npi::Link::assign_</title>
<!-- Node1 -->
<g id="Node000001" class="node">
<title>Node1</title>
<g id="a_Node000001"><a xlink:title="Internal helper to assign from another polymorphically related Link object.">
<polygon fill="#999999" stroke="#666666" points="228.5,-39 136,-39 136,-19 228.5,-19 228.5,-39"/>
<text text-anchor="middle" x="182.25" y="-25.5" font-family="Helvetica,sans-Serif" font-size="10.00">npi::Link::assign_</text>
</a>
</g>
</g>
<!-- Node2 -->
<g id="Node000002" class="node">
<title>Node2</title>
<g id="a_Node000002"><a xlink:href="../../df/d94/classnpi_1_1_link.html#a9f3660a3ec705d39f4118c467d3608ef" target="_top" xlink:title="Polymorphic non&#45;explicit converting copy constructor.">
<polygon fill="white" stroke="#666666" points="88.38,-58 11.62,-58 11.62,-38 88.38,-38 88.38,-58"/>
<text text-anchor="middle" x="50" y="-44.5" font-family="Helvetica,sans-Serif" font-size="10.00">npi::Link::Link</text>
</a>
</g>
</g>
<!-- Node1&#45;&gt;Node2 -->
<g id="edge1_Node000001_Node000002" class="edge">
<title>Node1&#45;&gt;Node2</title>
<g id="a_edge1_Node000001_Node000002"><a xlink:title=" ">
<path fill="none" stroke="#63b8ff" d="M124.65,-37.26C112.44,-39.04 99.82,-40.88 88.56,-42.52"/>
<polygon fill="none" stroke="#63b8ff" points="124.81,-40.77 134.2,-35.86 123.8,-33.84 124.81,-40.77"/>
</a>
</g>
</g>
<!-- Node3 -->
<g id="Node000003" class="node">
<title>Node3</title>
<g id="a_Node000003"><a xlink:href="../../df/d94/classnpi_1_1_link.html#acca70340de027d479c207417fcad32dd" target="_top" xlink:title="Polymorphic assignment operator.">
<polygon fill="white" stroke="#666666" points="100,-20 0,-20 0,0 100,0 100,-20"/>
<text text-anchor="middle" x="50" y="-6.5" font-family="Helvetica,sans-Serif" font-size="10.00">npi::Link::operator=</text>
</a>
</g>
</g>
<!-- Node1&#45;&gt;Node3 -->
<g id="edge2_Node000001_Node000003" class="edge">
<title>Node1&#45;&gt;Node3</title>
<g id="a_edge2_Node000001_Node000003"><a xlink:title=" ">
<path fill="none" stroke="#63b8ff" d="M124.48,-20.72C116.42,-19.54 108.2,-18.34 100.3,-17.19"/>
<polygon fill="none" stroke="#63b8ff" points="123.8,-24.16 134.2,-22.14 124.81,-17.23 123.8,-24.16"/>
</a>
</g>
</g>
</g>
</svg>
