<?xml version="1.0" encoding="UTF-8" standalone="no"?>
<!DOCTYPE svg PUBLIC "-//W3C//DTD SVG 1.1//EN"
 "http://www.w3.org/Graphics/SVG/1.1/DTD/svg11.dtd">
<!-- Generated by graphviz version 12.2.1 (20241206.2353)
 -->
<!-- Title: npi::Link::get_ Pages: 1 -->
<svg width="379pt" height="370pt"
 viewBox="0.00 0.00 378.50 370.00" xmlns="http://www.w3.org/2000/svg" xmlns:xlink="http://www.w3.org/1999/xlink">

<svg id="main" version="1.1" xmlns="http://www.w3.org/2000/svg" xmlns:xlink="http://www.w3.org/1999/xlink" xml:space="preserve">

<style type="text/css"><![CDATA[
.node, .edge {opacity: 0.7;}
.node.selected, .edge.selected {opacity: 1;}
.edge:hover path { stroke: red; }
.edge:hover polygon { stroke: red; fill: red; }
]]></style>
<script type="application/ecmascript" xlink:href="../../svg.min.js" target="_top"/>
<svg id="graph" class="graph">
<g id="graph0" class="graph" transform="scale(1 1) rotate(0) translate(4 366)">
<title>npi::Link::get_</title>
<!-- Node1 -->
<g id="Node000001" class="node">
<title>Node1</title>
<g id="a_Node000001"><a xlink:title="Retrieve a raw pointer to the managed object, if any.">
<polygon fill="#999999" stroke="#666666" points="370.5,-172 293,-172 293,-152 370.5,-152 370.5,-172"/>
<text text-anchor="middle" x="331.75" y="-158.5" font-family="Helvetica,sans-Serif" font-size="10.00">npi::Link::get_</text>
</a>
</g>
</g>
<!-- Node2 -->
<g id="Node000002" class="node">
<title>Node2</title>
<g id="a_Node000002"><a xlink:href="../../df/d94/classnpi_1_1_link.html#a49ef453c2ae07faa7affc879993e4427" target="_top" xlink:title="Internal helper to assign from another polymorphically related Link object.">
<polygon fill="white" stroke="#666666" points="250.25,-324 157.75,-324 157.75,-304 250.25,-304 250.25,-324"/>
<text text-anchor="middle" x="204" y="-310.5" font-family="Helvetica,sans-Serif" font-size="10.00">npi::Link::assign_</text>
</a>
</g>
</g>
<!-- Node1&#45;&gt;Node2 -->
<g id="edge1_Node000001_Node000002" class="edge">
<title>Node1&#45;&gt;Node2</title>
<g id="a_edge1_Node000001_Node000002"><a xlink:title=" ">
<path fill="none" stroke="#63b8ff" d="M324.27,-183.2C314.33,-212.31 292.64,-264.52 257,-295 252.98,-298.44 248.29,-301.27 243.4,-303.61"/>
<polygon fill="none" stroke="#63b8ff" points="327.59,-184.29 327.35,-173.7 320.93,-182.13 327.59,-184.29"/>
</a>
</g>
</g>
<!-- Node5 -->
<g id="Node000005" class="node">
<title>Node5</title>
<g id="a_Node000005"><a xlink:href="../../df/d94/classnpi_1_1_link.html#a0afa8ac8869c66d944896c24822e1cbc" target="_top" xlink:title="Check whether the link currently holds a valid object.">
<polygon fill="white" stroke="#666666" points="250.25,-286 157.75,-286 157.75,-266 250.25,-266 250.25,-286"/>
<text text-anchor="middle" x="204" y="-272.5" font-family="Helvetica,sans-Serif" font-size="10.00">npi::Link::isValid_</text>
</a>
</g>
</g>
<!-- Node1&#45;&gt;Node5 -->
<g id="edge4_Node000001_Node000005" class="edge">
<title>Node1&#45;&gt;Node5</title>
<g id="a_edge4_Node000001_Node000005"><a xlink:title=" ">
<path fill="none" stroke="#63b8ff" d="M319.62,-182.36C307.01,-203.71 284.57,-236.87 257,-257 252.42,-260.34 247.19,-263.15 241.85,-265.5"/>
<polygon fill="none" stroke="#63b8ff" points="322.63,-184.15 324.55,-173.73 316.55,-180.68 322.63,-184.15"/>
</a>
</g>
</g>
<!-- Node7 -->
<g id="Node000007" class="node">
<title>Node7</title>
<g id="a_Node000007"><a xlink:href="../../df/d94/classnpi_1_1_link.html#aee11aebd0ee056ca16228499caffe0c4" target="_top" xlink:title="Inequality comparison with a null pointer.">
<polygon fill="white" stroke="#666666" points="255.5,-248 152.5,-248 152.5,-228 255.5,-228 255.5,-248"/>
<text text-anchor="middle" x="204" y="-234.5" font-family="Helvetica,sans-Serif" font-size="10.00">npi::Link::operator!=</text>
</a>
</g>
</g>
<!-- Node1&#45;&gt;Node7 -->
<g id="edge6_Node000001_Node000007" class="edge">
<title>Node1&#45;&gt;Node7</title>
<g id="a_edge6_Node000001_Node000007"><a xlink:title=" ">
<path fill="none" stroke="#63b8ff" d="M311.1,-179.91C296.88,-192.16 276.76,-208.1 257,-219 251.19,-222.2 244.74,-225.06 238.41,-227.53"/>
<polygon fill="none" stroke="#63b8ff" points="313.2,-182.72 318.39,-173.48 308.58,-177.46 313.2,-182.72"/>
</a>
</g>
</g>
<!-- Node8 -->
<g id="Node000008" class="node">
<title>Node8</title>
<g id="a_Node000008"><a xlink:href="../../df/d94/classnpi_1_1_link.html#a49e97ca1b758fa82bbec1bf023f90b41" target="_top" xlink:title="Dereference operator to obtain a reference to the managed object.">
<polygon fill="white" stroke="#666666" points="252.88,-210 155.12,-210 155.12,-190 252.88,-190 252.88,-210"/>
<text text-anchor="middle" x="204" y="-196.5" font-family="Helvetica,sans-Serif" font-size="10.00">npi::Link::operator*</text>
</a>
</g>
</g>
<!-- Node1&#45;&gt;Node8 -->
<g id="edge7_Node000001_Node000008" class="edge">
<title>Node1&#45;&gt;Node8</title>
<g id="a_edge7_Node000001_Node000008"><a xlink:title=" ">
<path fill="none" stroke="#63b8ff" d="M285.38,-175.71C270.28,-180.27 253.73,-185.28 239.58,-189.55"/>
<polygon fill="none" stroke="#63b8ff" points="286.05,-179.17 294.61,-172.92 284.02,-172.46 286.05,-179.17"/>
</a>
</g>
</g>
<!-- Node9 -->
<g id="Node000009" class="node">
<title>Node9</title>
<g id="a_Node000009"><a xlink:href="../../df/d94/classnpi_1_1_link.html#afd3c88fe22396a22e7cd1816c4dd9635" target="_top" xlink:title="Pointer&#45;like access operator.">
<polygon fill="white" stroke="#666666" points="255.5,-172 152.5,-172 152.5,-152 255.5,-152 255.5,-172"/>
<text text-anchor="middle" x="204" y="-158.5" font-family="Helvetica,sans-Serif" font-size="10.00">npi::Link::operator&#45;&gt;</text>
</a>
</g>
</g>
<!-- Node1&#45;&gt;Node9 -->
<g id="edge8_Node000001_Node000009" class="edge">
<title>Node1&#45;&gt;Node9</title>
<g id="a_edge8_Node000001_Node000009"><a xlink:title=" ">
<path fill="none" stroke="#63b8ff" d="M281.22,-162C272.91,-162 264.28,-162 255.94,-162"/>
<polygon fill="none" stroke="#63b8ff" points="281.17,-165.5 291.17,-162 281.17,-158.5 281.17,-165.5"/>
</a>
</g>
</g>
<!-- Node10 -->
<g id="Node000010" class="node">
<title>Node10</title>
<g id="a_Node000010"><a xlink:href="../../df/d94/classnpi_1_1_link.html#abd093b8de4a754945b7a74ea437cf45e" target="_top" xlink:title="Compare two Link objects for equality.">
<polygon fill="white" stroke="#666666" points="257,-134 151,-134 151,-114 257,-114 257,-134"/>
<text text-anchor="middle" x="204" y="-120.5" font-family="Helvetica,sans-Serif" font-size="10.00">npi::Link::operator==</text>
</a>
</g>
</g>
<!-- Node1&#45;&gt;Node10 -->
<g id="edge9_Node000001_Node000010" class="edge">
<title>Node1&#45;&gt;Node10</title>
<g id="a_edge9_Node000001_Node000010"><a xlink:title=" ">
<path fill="none" stroke="#63b8ff" d="M285.38,-148.29C270.28,-143.73 253.73,-138.72 239.58,-134.45"/>
<polygon fill="none" stroke="#63b8ff" points="284.02,-151.54 294.61,-151.08 286.05,-144.83 284.02,-151.54"/>
</a>
</g>
</g>
<!-- Node11 -->
<g id="Node000011" class="node">
<title>Node11</title>
<g id="a_Node000011"><a xlink:href="../../df/d94/classnpi_1_1_link.html#a6ca86b92040321c72196dc0929af933e" target="_top" xlink:title="Compare this Link to a LinkHost for equality.">
<polygon fill="white" stroke="#666666" points="257,-96 151,-96 151,-76 257,-76 257,-96"/>
<text text-anchor="middle" x="204" y="-82.5" font-family="Helvetica,sans-Serif" font-size="10.00">npi::Link::operator==</text>
</a>
</g>
</g>
<!-- Node1&#45;&gt;Node11 -->
<g id="edge10_Node000001_Node000011" class="edge">
<title>Node1&#45;&gt;Node11</title>
<g id="a_edge10_Node000001_Node000011"><a xlink:title=" ">
<path fill="none" stroke="#63b8ff" d="M311.1,-144.09C296.88,-131.84 276.76,-115.9 257,-105 251.19,-101.8 244.74,-98.94 238.41,-96.47"/>
<polygon fill="none" stroke="#63b8ff" points="308.58,-146.54 318.39,-150.52 313.2,-141.28 308.58,-146.54"/>
</a>
</g>
</g>
<!-- Node12 -->
<g id="Node000012" class="node">
<title>Node12</title>
<g id="a_Node000012"><a xlink:href="../../df/d94/classnpi_1_1_link.html#a84c0017edc714b5163ee7392efef8503" target="_top" xlink:title="Compare the stored pointer to a raw pointer.">
<polygon fill="white" stroke="#666666" points="257,-58 151,-58 151,-38 257,-38 257,-58"/>
<text text-anchor="middle" x="204" y="-44.5" font-family="Helvetica,sans-Serif" font-size="10.00">npi::Link::operator==</text>
</a>
</g>
</g>
<!-- Node1&#45;&gt;Node12 -->
<g id="edge11_Node000001_Node000012" class="edge">
<title>Node1&#45;&gt;Node12</title>
<g id="a_edge11_Node000001_Node000012"><a xlink:title=" ">
<path fill="none" stroke="#63b8ff" d="M319.62,-141.64C307.01,-120.29 284.57,-87.13 257,-67 252.42,-63.66 247.19,-60.85 241.85,-58.5"/>
<polygon fill="none" stroke="#63b8ff" points="316.55,-143.32 324.55,-150.27 322.63,-139.85 316.55,-143.32"/>
</a>
</g>
</g>
<!-- Node13 -->
<g id="Node000013" class="node">
<title>Node13</title>
<g id="a_Node000013"><a xlink:href="../../df/d94/classnpi_1_1_link.html#aab2be36466d65f729d6e4fb99dc2e5b4" target="_top" xlink:title="Compare the stored pointer to a null pointer.">
<polygon fill="white" stroke="#666666" points="257,-20 151,-20 151,0 257,0 257,-20"/>
<text text-anchor="middle" x="204" y="-6.5" font-family="Helvetica,sans-Serif" font-size="10.00">npi::Link::operator==</text>
</a>
</g>
</g>
<!-- Node1&#45;&gt;Node13 -->
<g id="edge12_Node000001_Node000013" class="edge">
<title>Node1&#45;&gt;Node13</title>
<g id="a_edge12_Node000001_Node000013"><a xlink:title=" ">
<path fill="none" stroke="#63b8ff" d="M324.27,-140.8C314.33,-111.69 292.64,-59.48 257,-29 252.98,-25.56 248.29,-22.73 243.4,-20.39"/>
<polygon fill="none" stroke="#63b8ff" points="320.93,-141.87 327.35,-150.3 327.59,-139.71 320.93,-141.87"/>
</a>
</g>
</g>
<!-- Node3 -->
<g id="Node000003" class="node">
<title>Node3</title>
<g id="a_Node000003"><a xlink:href="../../df/d94/classnpi_1_1_link.html#a9f3660a3ec705d39f4118c467d3608ef" target="_top" xlink:title="Polymorphic non&#45;explicit converting copy constructor.">
<polygon fill="white" stroke="#666666" points="95.88,-362 19.12,-362 19.12,-342 95.88,-342 95.88,-362"/>
<text text-anchor="middle" x="57.5" y="-348.5" font-family="Helvetica,sans-Serif" font-size="10.00">npi::Link::Link</text>
</a>
</g>
</g>
<!-- Node2&#45;&gt;Node3 -->
<g id="edge2_Node000002_Node000003" class="edge">
<title>Node2&#45;&gt;Node3</title>
<g id="a_edge2_Node000002_Node000003"><a xlink:title=" ">
<path fill="none" stroke="#63b8ff" d="M152.01,-327.41C133.65,-332.24 113.28,-337.59 96.25,-342.07"/>
<polygon fill="none" stroke="#63b8ff" points="152.89,-330.8 161.67,-324.87 151.11,-324.03 152.89,-330.8"/>
</a>
</g>
</g>
<!-- Node4 -->
<g id="Node000004" class="node">
<title>Node4</title>
<g id="a_Node000004"><a xlink:href="../../df/d94/classnpi_1_1_link.html#acca70340de027d479c207417fcad32dd" target="_top" xlink:title="Polymorphic assignment operator.">
<polygon fill="white" stroke="#666666" points="107.5,-324 7.5,-324 7.5,-304 107.5,-304 107.5,-324"/>
<text text-anchor="middle" x="57.5" y="-310.5" font-family="Helvetica,sans-Serif" font-size="10.00">npi::Link::operator=</text>
</a>
</g>
</g>
<!-- Node2&#45;&gt;Node4 -->
<g id="edge3_Node000002_Node000004" class="edge">
<title>Node2&#45;&gt;Node4</title>
<g id="a_edge3_Node000002_Node000004"><a xlink:title=" ">
<path fill="none" stroke="#63b8ff" d="M145.96,-314C133.39,-314 120.17,-314 107.93,-314"/>
<polygon fill="none" stroke="#63b8ff" points="145.77,-317.5 155.77,-314 145.77,-310.5 145.77,-317.5"/>
</a>
</g>
</g>
<!-- Node6 -->
<g id="Node000006" class="node">
<title>Node6</title>
<g id="a_Node000006"><a xlink:href="../../df/d94/classnpi_1_1_link.html#ad1586f240337b35f18f9db888416d7df" target="_top" xlink:title="Explicit boolean conversion operator (e.g. if(link){...}).">
<polygon fill="white" stroke="#666666" points="115,-286 0,-286 0,-266 115,-266 115,-286"/>
<text text-anchor="middle" x="57.5" y="-272.5" font-family="Helvetica,sans-Serif" font-size="10.00">npi::Link::operator bool</text>
</a>
</g>
</g>
<!-- Node5&#45;&gt;Node6 -->
<g id="edge5_Node000005_Node000006" class="edge">
<title>Node5&#45;&gt;Node6</title>
<g id="a_edge5_Node000005_Node000006"><a xlink:title=" ">
<path fill="none" stroke="#63b8ff" d="M146.09,-276C135.98,-276 125.46,-276 115.35,-276"/>
<polygon fill="none" stroke="#63b8ff" points="145.77,-279.5 155.77,-276 145.77,-272.5 145.77,-279.5"/>
</a>
</g>
</g>
</g>
</svg>
</svg>

<style type='text/css'>
<![CDATA[
[data-mouse-over-selected='false'] { opacity: 0.7; }
[data-mouse-over-selected='true']  { opacity: 1.0; }
]]>
</style>
<script type="application/ecmascript"><![CDATA[
document.addEventListener('DOMContentLoaded', (event) => {
  highlightEdges();
  highlightAdjacentNodes();
});
]]></script>
</svg>
</svg>
